<svg width="227" height="226" viewBox="0 0 227 226" version="1.1" xmlns="http://www.w3.org/2000/svg" xmlns:xlink="http://www.w3.org/1999/xlink">
<title>Logo White</title>
<desc>Created using Figma</desc>
<g id="Canvas" transform="translate(-209 397)">
<g id="Logo White">
<g id="Ellipse 2">
<use xlink:href="#path0_fill" transform="matrix(1 -0.000251962 0.000251962 1 209 -396.943)" fill="#EFEFEF"/>
</g>
<g id="STEVEN CHRISTENSON">
<use xlink:href="#path1_fill" transform="translate(252 -241)" fill="#080706"/>
</g>
<g id="Vector">
<use xlink:href="#path2_stroke" transform="translate(266 -355)" fill="#D1B180"/>
</g>
<g id="Vector">
<use xlink:href="#path3_stroke" transform="translate(283 -335)" fill="#ACBEBE"/>
</g>
<g id="S">
<use xlink:href="#path4_fill" transform="translate(258 -355)" fill="#080706"/>
</g>
<g id="Vector">
<use xlink:href="#path2_stroke" transform="matrix(1 0 0 -1 324 -252)" fill="#D1B180"/>
</g>
<g id="Vector 2">
<use xlink:href="#path5_stroke" transform="translate(324.5 -335)" fill="#ACBEBE"/>
</g>
<g id="C">
<use xlink:href="#path6_fill" transform="translate(325 -355)" fill="#080706"/>
</g>
<g id="Vector">
<use xlink:href="#path7_stroke" transform="translate(284 -263)" fill="#ACBEBE"/>
</g>
</g>
</g>
<defs>
<path id="path0_fill" d="M 225.973 112.515C 225.973 174.655 175.387 225.03 112.986 225.03C 50.5857 225.03 0 174.655 0 112.515C 0 50.3746 50.5857 0 112.986 0C 175.387 0 225.973 50.3746 225.973 112.515Z"/>
<path id="path1_fill" d="M 7.04102 17.2598C 7.04102 18.4316 6.71549 19.3822 6.06445 20.1113C 5.41341 20.834 4.58659 21.1953 3.58398 21.1953C 2.44466 21.1953 1.52995 21.0293 0.839844 20.6973L 0.839844 19.6621C 1.17839 19.8509 1.59831 20.0007 2.09961 20.1113C 2.60091 20.222 3.0957 20.2773 3.58398 20.2773C 4.31315 20.2773 4.91211 20.0007 5.38086 19.4473C 5.84961 18.8939 6.08398 18.1908 6.08398 17.3379C 6.08398 16.5501 5.91797 15.9251 5.58594 15.4629C 5.25391 15.0007 4.61914 14.5384 3.68164 14.0762C 2.94596 13.7051 2.39583 13.347 2.03125 13.002C 1.66667 12.6504 1.39648 12.2435 1.2207 11.7812C 1.04492 11.319 0.957031 10.7656 0.957031 10.1211C 0.957031 9.41797 1.10026 8.79297 1.38672 8.24609C 1.67318 7.69922 2.07357 7.27604 2.58789 6.97656C 3.10221 6.67057 3.66536 6.51758 4.27734 6.51758C 4.83073 6.51758 5.33203 6.57943 5.78125 6.70312C 6.23698 6.82682 6.59505 6.96029 6.85547 7.10352L 6.48438 8.02148C 5.76172 7.65039 5.02604 7.46484 4.27734 7.46484C 3.57422 7.46484 3.0013 7.70573 2.55859 8.1875C 2.1224 8.66276 1.9043 9.29427 1.9043 10.082C 1.9043 10.8828 2.0638 11.5046 2.38281 11.9473C 2.70182 12.39 3.32682 12.849 4.25781 13.3242C 5.22135 13.793 5.92448 14.3431 6.36719 14.9746C 6.81641 15.5996 7.04102 16.3613 7.04102 17.2598ZM 11.8457 21L 10.8887 21L 10.8887 7.64062L 8.04688 7.64062L 8.04688 6.72266L 14.6875 6.72266L 14.6875 7.64062L 11.8457 7.64062L 11.8457 21ZM 21.6016 21L 16.4258 21L 16.4258 6.72266L 21.6016 6.72266L 21.6016 7.64062L 17.3828 7.64062L 17.3828 13.0605L 21.3672 13.0605L 21.3672 13.9785L 17.3828 13.9785L 17.3828 20.082L 21.6016 20.082L 21.6016 21ZM 29.375 6.72266L 30.3613 6.72266L 26.9824 21L 25.918 21L 22.5586 6.72266L 23.5547 6.72266L 25.8789 16.7617C 26.0612 17.5299 26.1816 18.0964 26.2402 18.4609C 26.2988 18.819 26.3574 19.2715 26.416 19.8184C 26.4681 19.4408 26.5234 19.0697 26.582 18.7051C 26.6406 18.3405 26.696 18.0345 26.748 17.7871C 26.8066 17.5332 27.6823 13.8451 29.375 6.72266ZM 37.1094 21L 31.9336 21L 31.9336 6.72266L 37.1094 6.72266L 37.1094 7.64062L 32.8906 7.64062L 32.8906 13.0605L 36.875 13.0605L 36.875 13.9785L 32.8906 13.9785L 32.8906 20.082L 37.1094 20.082L 37.1094 21ZM 47.1484 21L 45.9277 21L 40.5273 8.19727L 40.4492 8.19727C 40.5273 9.08268 40.5664 9.93555 40.5664 10.7559L 40.5664 21L 39.6289 21L 39.6289 6.72266L 40.8691 6.72266L 46.2305 19.3789L 46.2891 19.3789C 46.237 18.3112 46.2109 17.4193 46.2109 16.7031L 46.2109 6.72266L 47.1484 6.72266L 47.1484 21ZM 58.0762 7.41602C 57.002 7.41602 56.1458 7.98568 55.5078 9.125C 54.8763 10.2578 54.5605 11.8301 54.5605 13.8418C 54.5605 15.1504 54.707 16.2897 55 17.2598C 55.293 18.2298 55.7129 18.9753 56.2598 19.4961C 56.8066 20.0169 57.4414 20.2773 58.1641 20.2773C 58.9062 20.2773 59.5443 20.1439 60.0781 19.877L 60.0781 20.7559C 59.5703 21.0488 58.903 21.1953 58.0762 21.1953C 57.1712 21.1953 56.377 20.9023 55.6934 20.3164C 55.0163 19.7305 54.4922 18.8841 54.1211 17.7773C 53.75 16.6641 53.5645 15.3457 53.5645 13.8223C 53.5645 11.5436 53.9681 9.75326 54.7754 8.45117C 55.5892 7.14909 56.696 6.49805 58.0957 6.49805C 58.9681 6.49805 59.7298 6.69987 60.3809 7.10352L 59.9414 7.94336C 59.3945 7.5918 58.7728 7.41602 58.0762 7.41602ZM 69.3359 21L 68.3789 21L 68.3789 13.9785L 63.3984 13.9785L 63.3984 21L 62.4414 21L 62.4414 6.72266L 63.3984 6.72266L 63.3984 13.0605L 68.3789 13.0605L 68.3789 6.72266L 69.3359 6.72266L 69.3359 21ZM 73.418 14.7598L 73.418 21L 72.4609 21L 72.4609 6.72266L 74.4141 6.72266C 75.8073 6.72266 76.8262 7.05143 77.4707 7.70898C 78.1152 8.36654 78.4375 9.34961 78.4375 10.6582C 78.4375 11.6478 78.2617 12.4616 77.9102 13.0996C 77.5586 13.7376 76.9694 14.2161 76.1426 14.5352L 78.9746 21L 77.9004 21L 75.2344 14.7598L 73.418 14.7598ZM 73.418 13.8809L 74.7559 13.8809C 75.6217 13.8809 76.2891 13.6139 76.7578 13.0801C 77.2266 12.5462 77.4609 11.752 77.4609 10.6973C 77.4609 9.62305 77.2201 8.84831 76.7383 8.37305C 76.263 7.89779 75.5111 7.66016 74.4824 7.66016L 73.418 7.66016L 73.418 13.8809ZM 80.957 21L 80.957 6.72266L 81.9141 6.72266L 81.9141 21L 80.957 21ZM 90.5176 17.2598C 90.5176 18.4316 90.1921 19.3822 89.541 20.1113C 88.89 20.834 88.0632 21.1953 87.0605 21.1953C 85.9212 21.1953 85.0065 21.0293 84.3164 20.6973L 84.3164 19.6621C 84.6549 19.8509 85.0749 20.0007 85.5762 20.1113C 86.0775 20.222 86.5723 20.2773 87.0605 20.2773C 87.7897 20.2773 88.3887 20.0007 88.8574 19.4473C 89.3262 18.8939 89.5605 18.1908 89.5605 17.3379C 89.5605 16.5501 89.3945 15.9251 89.0625 15.4629C 88.7305 15.0007 88.0957 14.5384 87.1582 14.0762C 86.4225 13.7051 85.8724 13.347 85.5078 13.002C 85.1432 12.6504 84.873 12.2435 84.6973 11.7812C 84.5215 11.319 84.4336 10.7656 84.4336 10.1211C 84.4336 9.41797 84.5768 8.79297 84.8633 8.24609C 85.1497 7.69922 85.5501 7.27604 86.0645 6.97656C 86.5788 6.67057 87.1419 6.51758 87.7539 6.51758C 88.3073 6.51758 88.8086 6.57943 89.2578 6.70312C 89.7135 6.82682 90.0716 6.96029 90.332 7.10352L 89.9609 8.02148C 89.2383 7.65039 88.5026 7.46484 87.7539 7.46484C 87.0508 7.46484 86.4779 7.70573 86.0352 8.1875C 85.599 8.66276 85.3809 9.29427 85.3809 10.082C 85.3809 10.8828 85.5404 11.5046 85.8594 11.9473C 86.1784 12.39 86.8034 12.849 87.7344 13.3242C 88.6979 13.793 89.401 14.3431 89.8438 14.9746C 90.293 15.5996 90.5176 16.3613 90.5176 17.2598ZM 95.3223 21L 94.3652 21L 94.3652 7.64062L 91.5234 7.64062L 91.5234 6.72266L 98.1641 6.72266L 98.1641 7.64062L 95.3223 7.64062L 95.3223 21ZM 105.078 21L 99.9023 21L 99.9023 6.72266L 105.078 6.72266L 105.078 7.64062L 100.859 7.64062L 100.859 13.0605L 104.844 13.0605L 104.844 13.9785L 100.859 13.9785L 100.859 20.082L 105.078 20.082L 105.078 21ZM 115.117 21L 113.896 21L 108.496 8.19727L 108.418 8.19727C 108.496 9.08268 108.535 9.93555 108.535 10.7559L 108.535 21L 107.598 21L 107.598 6.72266L 108.838 6.72266L 114.199 19.3789L 114.258 19.3789C 114.206 18.3112 114.18 17.4193 114.18 16.7031L 114.18 6.72266L 115.117 6.72266L 115.117 21ZM 123.721 17.2598C 123.721 18.4316 123.395 19.3822 122.744 20.1113C 122.093 20.834 121.266 21.1953 120.264 21.1953C 119.124 21.1953 118.21 21.0293 117.52 20.6973L 117.52 19.6621C 117.858 19.8509 118.278 20.0007 118.779 20.1113C 119.281 20.222 119.775 20.2773 120.264 20.2773C 120.993 20.2773 121.592 20.0007 122.061 19.4473C 122.529 18.8939 122.764 18.1908 122.764 17.3379C 122.764 16.5501 122.598 15.9251 122.266 15.4629C 121.934 15.0007 121.299 14.5384 120.361 14.0762C 119.626 13.7051 119.076 13.347 118.711 13.002C 118.346 12.6504 118.076 12.2435 117.9 11.7812C 117.725 11.319 117.637 10.7656 117.637 10.1211C 117.637 9.41797 117.78 8.79297 118.066 8.24609C 118.353 7.69922 118.753 7.27604 119.268 6.97656C 119.782 6.67057 120.345 6.51758 120.957 6.51758C 121.51 6.51758 122.012 6.57943 122.461 6.70312C 122.917 6.82682 123.275 6.96029 123.535 7.10352L 123.164 8.02148C 122.441 7.65039 121.706 7.46484 120.957 7.46484C 120.254 7.46484 119.681 7.70573 119.238 8.1875C 118.802 8.66276 118.584 9.29427 118.584 10.082C 118.584 10.8828 118.743 11.5046 119.062 11.9473C 119.382 12.39 120.007 12.849 120.938 13.3242C 121.901 13.793 122.604 14.3431 123.047 14.9746C 123.496 15.5996 123.721 16.3613 123.721 17.2598ZM 133.906 13.8418C 133.906 16.2051 133.551 18.0215 132.842 19.291C 132.139 20.5605 131.12 21.1953 129.785 21.1953C 128.438 21.1953 127.415 20.5573 126.719 19.2812C 126.022 17.9987 125.674 16.179 125.674 13.8223C 125.674 11.3613 126.019 9.52865 126.709 8.32422C 127.399 7.11979 128.434 6.51758 129.814 6.51758C 131.143 6.51758 132.155 7.15234 132.852 8.42188C 133.555 9.6849 133.906 11.4915 133.906 13.8418ZM 126.67 13.8418C 126.67 15.9642 126.934 17.569 127.461 18.6562C 127.995 19.737 128.77 20.2773 129.785 20.2773C 130.807 20.2773 131.582 19.7402 132.109 18.666C 132.643 17.5918 132.91 15.9837 132.91 13.8418C 132.91 11.7259 132.65 10.1309 132.129 9.05664C 131.608 7.97591 130.837 7.43555 129.814 7.43555C 128.766 7.43555 127.979 7.98242 127.451 9.07617C 126.93 10.1634 126.67 11.752 126.67 13.8418ZM 144.082 21L 142.861 21L 137.461 8.19727L 137.383 8.19727C 137.461 9.08268 137.5 9.93555 137.5 10.7559L 137.5 21L 136.562 21L 136.562 6.72266L 137.803 6.72266L 143.164 19.3789L 143.223 19.3789C 143.171 18.3112 143.145 17.4193 143.145 16.7031L 143.145 6.72266L 144.082 6.72266L 144.082 21Z"/>
<path id="path2_stroke" d="M 42.1019 29.5L 40.3665 28.5059L 42.1019 29.5ZM 8.30583 88.5L 10.0413 89.4941L 8.30583 88.5ZM 57.2646 -0.994092L 40.3665 28.5059L 43.8374 30.4941L 60.7354 0.994092L 57.2646 -0.994092ZM 40.3665 28.5059L 6.57038 87.5059L 10.0413 89.4941L 43.8374 30.4941L 40.3665 28.5059ZM 6.57038 87.5059L -1.73545 102.006L 1.73545 103.994L 10.0413 89.4941L 6.57038 87.5059Z"/>
<path id="path3_stroke" d="M 29.9709 20.9078L 28.2373 19.9104L 29.9709 20.9078ZM 5.91262 62.7233L 7.64618 63.7207L 5.91262 62.7233ZM 40.2664 -0.997388L 28.2373 19.9104L 31.7044 21.9052L 43.7336 0.997388L 40.2664 -0.997388ZM 28.2373 19.9104L 4.17907 61.7259L 7.64618 63.7207L 31.7044 21.9052L 28.2373 19.9104ZM 4.17907 61.7259L -1.73356 72.0026L 1.73356 73.9974L 7.64618 63.7207L 4.17907 61.7259Z"/>
<path id="path4_fill" d="M 24.576 34.976C 27.392 34.976 29.6 35.296 31.2 35.936C 32.864 36.512 34.56 37.376 36.288 38.528C 37.696 39.424 38.784 39.872 39.552 39.872C 40.128 39.872 40.576 39.552 40.896 38.912C 41.216 38.208 41.472 37.12 41.664 35.648L 43.872 35.648C 43.552 39.36 43.392 45.888 43.392 55.232L 41.184 55.232C 40.8 50.048 39.296 45.696 36.672 42.176C 34.112 38.592 30.368 36.8 25.44 36.8C 21.984 36.8 19.168 37.856 16.992 39.968C 14.816 42.016 13.728 44.672 13.728 47.936C 13.728 50.368 14.272 52.48 15.36 54.272C 16.512 56.064 17.952 57.6 19.68 58.88C 21.408 60.16 23.872 61.792 27.072 63.776L 29.856 65.504C 33.888 68 37.056 70.208 39.36 72.128C 41.728 73.984 43.616 76.128 45.024 78.56C 46.432 80.992 47.136 83.84 47.136 87.104C 47.136 92.928 45.216 97.44 41.376 100.64C 37.536 103.776 32.672 105.344 26.784 105.344C 23.712 105.344 21.184 105.024 19.2 104.384C 17.28 103.744 15.424 102.88 13.632 101.792C 12.224 100.896 11.136 100.448 10.368 100.448C 9.792 100.448 9.344 100.8 9.024 101.504C 8.704 102.144 8.448 103.2 8.256 104.672L 6.048 104.672C 6.304 101.152 6.432 93.472 6.432 81.632L 8.64 81.632C 9.088 88.096 10.688 93.344 13.44 97.376C 16.192 101.408 20.416 103.424 26.112 103.424C 29.568 103.424 32.512 102.368 34.944 100.256C 37.376 98.08 38.592 94.88 38.592 90.656C 38.592 87.072 37.376 84.032 34.944 81.536C 32.576 79.04 28.8 76.224 23.616 73.088C 19.84 70.784 16.768 68.736 14.4 66.944C 12.096 65.152 10.208 63.008 8.736 60.512C 7.264 57.952 6.528 54.976 6.528 51.584C 6.528 46.208 8.256 42.112 11.712 39.296C 15.168 36.416 19.456 34.976 24.576 34.976Z"/>
<path id="path5_stroke" d="M 14.1701 26.5L 15.9338 25.5569L 14.1701 26.5ZM 19.5174 36.5L 17.7537 37.4431L 19.5174 36.5ZM 25.1319 47L 26.8956 46.0569L 25.1319 47ZM 15.9338 25.5569L 1.76369 -0.943083L -1.76369 0.943083L 12.4065 27.4431L 15.9338 25.5569ZM 21.281 35.5569L 15.9338 25.5569L 12.4065 27.4431L 17.7537 37.4431L 21.281 35.5569ZM 40.2637 71.0569L 26.8956 46.0569L 23.3683 47.9431L 36.7363 72.9431L 40.2637 71.0569ZM 26.8956 46.0569L 21.281 35.5569L 17.7537 37.4431L 23.3683 47.9431L 26.8956 46.0569Z"/>
<path id="path6_fill" d="M 35.616 34.688C 39.456 34.688 42.72 35.232 45.408 36.32C 48.096 37.408 50.72 38.944 53.28 40.928C 53.984 41.504 54.592 41.792 55.104 41.792C 56.384 41.792 57.216 39.872 57.6 36.032L 59.808 36.032C 59.552 40.192 59.424 47.552 59.424 58.112L 57.216 58.112C 56.512 53.952 55.872 50.976 55.296 49.184C 54.72 47.328 53.76 45.568 52.416 43.904C 50.496 41.408 48.032 39.552 45.024 38.336C 42.08 37.056 38.88 36.416 35.424 36.416C 31.264 36.416 27.616 37.792 24.48 40.544C 21.408 43.296 19.008 47.232 17.28 52.352C 15.552 57.408 14.688 63.36 14.688 70.208C 14.688 77.184 15.616 83.168 17.472 88.16C 19.328 93.152 21.888 96.96 25.152 99.584C 28.48 102.144 32.224 103.424 36.384 103.424C 39.584 103.424 42.688 102.816 45.696 101.6C 48.704 100.384 51.072 98.56 52.8 96.128C 54.08 94.336 55.008 92.416 55.584 90.368C 56.16 88.32 56.704 85.184 57.216 80.96L 59.424 80.96C 59.424 91.968 59.552 99.648 59.808 104L 57.6 104C 57.408 101.952 57.12 100.512 56.736 99.68C 56.416 98.784 55.936 98.336 55.296 98.336C 54.784 98.336 54.112 98.592 53.28 99.104C 50.4 101.152 47.648 102.72 45.024 103.808C 42.4 104.832 39.232 105.344 35.52 105.344C 29.44 105.344 24.096 103.968 19.488 101.216C 14.944 98.464 11.392 94.496 8.832 89.312C 6.336 84.064 5.088 77.824 5.088 70.592C 5.088 63.552 6.368 57.312 8.928 51.872C 11.552 46.432 15.168 42.208 19.776 39.2C 24.448 36.192 29.728 34.688 35.616 34.688Z"/>
<path id="path7_stroke" d="M 0 2L 55.8974 2L 55.8974 -2L 0 -2L 0 2ZM 55.8974 2L 80 2L 80 -2L 55.8974 -2L 55.8974 2Z"/>
</defs>
</svg>
