<svg width="324" height="83" viewBox="0 0 324 83" version="1.1" xmlns="http://www.w3.org/2000/svg" xmlns:xlink="http://www.w3.org/1999/xlink">
<title>Logo Group</title>
<desc>Created using Figma</desc>
<g id="Canvas" transform="translate(-253 1045)">
<g id="Logo Group">
<g id="Group">
<g id="Canvas">
<g id="Square Geo">
<g id="Vector">
<g id="Vector">
<use xlink:href="#path0_fill" transform="matrix(-1 0 0 1 575.531 -1045)" fill="#D1B180"/>
</g>
</g>
<g id="Vector">
<g id="Vector">
<use xlink:href="#path0_fill" transform="translate(507.402 -1045)" fill="#D1B180"/>
</g>
</g>
<g id="Vector">
<g id="Vector">
<use xlink:href="#path0_fill" transform="matrix(1 0 0 -1 507.402 -965)" fill="#D1B180"/>
</g>
</g>
<g id="Vector">
<g id="Vector">
<use xlink:href="#path0_fill" transform="matrix(-1 0 0 -1 575.531 -965)" fill="#D1B180"/>
</g>
</g>
<g id="Vector">
<g id="Vector">
<use xlink:href="#path0_fill" transform="matrix(1 0 0 -1 507.402 -996.229)" fill="#D1B180"/>
</g>
</g>
<g id="Vector">
<g id="Vector">
<use xlink:href="#path0_fill" transform="matrix(-1 0 0 -1 575.531 -996.229)" fill="#D1B180"/>
</g>
</g>
<g id="Vector">
<g id="Vector">
<use xlink:href="#path0_fill" transform="matrix(-1 0 0 1 575.531 -997.915)" fill="#D1B180"/>
</g>
</g>
<g id="Vector">
<g id="Vector">
<use xlink:href="#path0_fill" transform="translate(507.402 -997.915)" fill="#D1B180"/>
</g>
</g>
<g id="Vector 2">
<g id="Vector">
<use xlink:href="#path1_fill" transform="translate(574.858 -1020.3)" fill="#D1B180"/>
</g>
</g>
<g id="Vector 2.1">
<g id="Vector">
<use xlink:href="#path1_fill" transform="translate(507 -1022.14)" fill="#D1B180"/>
</g>
</g>
<g id="Vector 2.2">
<g id="Vector">
<use xlink:href="#path1_fill" transform="translate(540.698 -1029)" fill="#D1B180"/>
</g>
</g>
<g id="Vector 2.3">
<g id="Vector">
<use xlink:href="#path1_fill" transform="translate(574.858 -1005.92)" fill="#D1B180"/>
</g>
</g>
<g id="Vector 2.4">
<g id="Vector">
<use xlink:href="#path1_fill" transform="translate(507 -1005.92)" fill="#D1B180"/>
</g>
</g>
</g>
</g>
</g>
<g id="Group">
<g id="Canvas">
<g id="Triangle Geo (B)">
<g id="Vector">
<g id="Vector">
<use xlink:href="#path2_fill" transform="translate(253 -1042)" fill="#ACBEBE"/>
</g>
</g>
<g id="Vector">
<g id="Vector">
<use xlink:href="#path3_fill" transform="translate(265.955 -1026.76)" fill="#D1B180"/>
</g>
</g>
<g id="Vector">
<g id="Vector">
<use xlink:href="#path2_fill" transform="matrix(1 0 0 -1 297.195 -962)" fill="#ACBEBE"/>
</g>
</g>
<g id="Vector 2.1">
<g id="Vector">
<use xlink:href="#path4_fill" transform="translate(297.555 -1026.72)" fill="#D1B180"/>
</g>
</g>
<g id="Vector">
<g id="Vector">
<use xlink:href="#path5_fill" transform="translate(268.038 -972.663)" fill="#D1B180"/>
</g>
</g>
</g>
</g>
</g>
<g id="Logo circle">
<g id="Ellipse">
<mask id="mask0_outline_ins">
<use xlink:href="#path6_fill" fill="white" transform="translate(400.952 -1039.71)"/>
</mask>
<g mask="url(#mask0_outline_ins)">
<use xlink:href="#path7_stroke_2x" transform="translate(400.952 -1039.71)" fill="#ACBEBE"/>
</g>
</g>
<g id="Vector">
<use xlink:href="#path8_stroke" transform="translate(357.524 -1040.61)" fill="#D1B180"/>
</g>
<g id="Vector">
<use xlink:href="#path9_stroke" transform="translate(426.857 -1031.33)" fill="#D1B180"/>
</g>
<g id="Ellipse 2">
<mask id="mask1_outline_ins">
<use xlink:href="#path10_fill" fill="white" transform="translate(386.476 -1006.19)"/>
</mask>
<g mask="url(#mask1_outline_ins)">
<use xlink:href="#path11_stroke_2x" transform="translate(386.476 -1006.19)" fill="#ACBEBE"/>
</g>
</g>
<g id="Ellipse 3">
<use xlink:href="#path12_fill" transform="translate(356 -965.048)" fill="#D1B180"/>
</g>
<g id="Ellipse 3.1">
<use xlink:href="#path12_fill" transform="translate(425.333 -996.286)" fill="#D1B180"/>
</g>
<g id="Ellipse 3.2">
<use xlink:href="#path12_fill" transform="translate(490.095 -1042)" fill="#D1B180"/>
</g>
<g id="Ellipse 3.3">
<use xlink:href="#path12_fill" transform="translate(488.571 -1032.86)" fill="#D1B180"/>
</g>
<g id="Ellipse 3.4">
<use xlink:href="#path12_fill" transform="translate(413.143 -1033.62)" fill="#ACBEBE"/>
</g>
</g>
</g>
</g>
<defs>
<path id="path0_fill" d="M 34.7001 2.49701e-08L 2.51462e-08 23.7037L 1.04152 25.2284L 35.7417 1.5247L 34.7001 2.49701e-08Z"/>
<path id="path1_fill" d="M 1.84648 32.2186L 1.84648 0L 0 0L 0 32.2186L 1.84648 32.2186Z"/>
<path id="path2_fill" d="M 33.4036 23.2362L 32.0812 22.4787L 33.4036 23.2362ZM 7.65135 68.1936L 8.97376 68.9511L 7.65135 68.1936ZM 44.9574 9.44115e-09L 32.0812 22.4787L 34.726 23.9937L 47.6021 1.51498L 44.9574 9.44115e-09ZM 32.0812 22.4787L 6.32895 67.4361L 8.97376 68.9511L 34.726 23.9937L 32.0812 22.4787ZM 6.32895 67.4361L -2.2382e-08 78.485L 2.64479 79.9998L 8.97376 68.9511L 6.32895 67.4361Z"/>
<path id="path3_fill" d="M 24.1585 16.6915L 22.8375 15.9315L 24.1585 16.6915ZM 5.82631 48.5545L 7.14726 49.3145L 5.82631 48.5545ZM 32.0035 -4.00551e-09L 22.8375 15.9315L 25.4794 17.4515L 34.6455 1.52L 32.0035 -4.00551e-09ZM 22.8375 15.9315L 4.50536 47.7945L 7.14726 49.3145L 25.4794 17.4515L 22.8375 15.9315ZM 4.50536 47.7945L 2.58411e-08 55.6252L 2.64191 57.1452L 7.14726 49.3145L 4.50536 47.7945Z"/>
<path id="path4_fill" d="M 12.1414 20.9113L 13.4853 20.1927L 12.1414 20.9113ZM 16.216 28.5312L 14.872 29.2499L 16.216 28.5312ZM 20.4942 36.5321L 21.8381 35.8135L 20.4942 36.5321ZM 13.4853 20.1927L 2.68783 8.9441e-09L 3.95319e-09 1.43724L 10.7975 21.63L 13.4853 20.1927ZM 17.5598 27.8126L 13.4853 20.1927L 10.7975 21.63L 14.872 29.2499L 17.5598 27.8126ZM 32.0244 54.8632L 21.8381 35.8135L 19.1503 37.2508L 29.3366 56.3005L 32.0244 54.8632ZM 21.8381 35.8135L 17.5598 27.8126L 14.872 29.2499L 19.1503 37.2508L 21.8381 35.8135Z"/>
<path id="path5_fill" d="M 0 3.04796L 42.5932 3.04796L 42.5932 0L 0 0L 0 3.04796ZM 42.5932 3.04796L 60.9592 3.04796L 60.9592 0L 42.5932 0L 42.5932 3.04796Z"/>
<path id="path6_fill" d="M 70.0952 33.1429C 70.0952 51.4472 54.4039 66.2857 35.0476 66.2857C 15.6914 66.2857 0 51.4472 0 33.1429C 0 14.8386 15.6914 0 35.0476 0C 54.4039 0 70.0952 14.8386 70.0952 33.1429Z"/>
<path id="path7_stroke_2x" d="M 68.0952 33.1429C 68.0952 50.2388 53.4061 64.2857 35.0476 64.2857L 35.0476 68.2857C 55.4017 68.2857 72.0952 52.6556 72.0952 33.1429L 68.0952 33.1429ZM 35.0476 64.2857C 16.6892 64.2857 2 50.2388 2 33.1429L -2 33.1429C -2 52.6556 14.6936 68.2857 35.0476 68.2857L 35.0476 64.2857ZM 2 33.1429C 2 16.047 16.6892 2 35.0476 2L 35.0476 -2C 14.6936 -2 -2 13.6302 -2 33.1429L 2 33.1429ZM 35.0476 2C 53.4061 2 68.0952 16.047 68.0952 33.1429L 72.0952 33.1429C 72.0952 13.6302 55.4017 -2 35.0476 -2L 35.0476 2Z"/>
<path id="path8_stroke" d="M 0.491455 77.956C 58.5496 45.1935 92.9348 25.5404 112.331 14.2833C 122.027 8.65582 127.983 5.12277 131.28 3.09797C 132.918 2.09245 133.93 1.4403 134.416 1.08477C 134.534 0.997944 134.655 0.90506 134.75 0.815459C 134.787 0.779956 134.88 0.691356 134.958 0.566604C 134.994 0.510338 135.083 0.360742 135.111 0.14745C 135.146 -0.118607 135.079 -0.481261 134.775 -0.747243C 134.537 -0.955964 134.278 -0.988189 134.188 -0.996025C 134.075 -1.00583 133.983 -0.995214 133.933 -0.988117C 133.832 -0.973438 133.743 -0.947056 133.691 -0.93009C 133.575 -0.893109 133.445 -0.840211 133.317 -0.784813L 134.112 1.0503C 134.222 1.00252 134.281 0.981015 134.3 0.974663C 134.315 0.969963 134.281 0.982446 134.22 0.991282C 134.191 0.995457 134.115 1.00516 134.015 0.996503C 133.938 0.98981 133.69 0.960777 133.457 0.757334C 133.16 0.49663 133.094 0.14134 133.128 -0.115231C 133.155 -0.319038 133.239 -0.457026 133.266 -0.499527C 133.302 -0.556751 133.335 -0.594773 133.349 -0.609617C 133.364 -0.62718 133.375 -0.637565 133.377 -0.639608C 133.381 -0.643128 133.373 -0.635138 133.345 -0.613018C 133.319 -0.592222 133.283 -0.564526 133.234 -0.52911C 132.825 -0.229382 131.882 0.381368 130.234 1.3937C 126.959 3.40462 121.021 6.92712 111.327 12.5536C 91.9414 23.8045 57.5647 43.4529 -0.491455 76.2142L 0.491455 77.956Z"/>
<path id="path9_stroke" d="M 0.493762 37.441C 27.869 21.8972 44.0839 12.572 53.232 7.22964C 57.8042 4.55949 60.6177 2.8805 62.1782 1.91618C 62.9473 1.44093 63.4429 1.12052 63.6921 0.937008C 63.7516 0.893179 63.8302 0.833217 63.8999 0.767126C 63.9249 0.743337 64.0085 0.664131 64.0821 0.546619C 64.1151 0.493849 64.2019 0.347853 64.2295 0.138187C 64.2639 -0.122993 64.1984 -0.48269 63.8975 -0.747871C 63.6607 -0.956526 63.4043 -0.98844 63.3164 -0.996104C 63.2062 -1.00572 63.1176 -0.995219 63.0737 -0.988822C 62.9824 -0.975539 62.908 -0.952584 62.8728 -0.941252C 62.7929 -0.915499 62.7121 -0.881993 62.6472 -0.853677L 63.4466 0.979631C 63.4939 0.958998 63.5022 0.957204 63.4861 0.962399C 63.4828 0.963452 63.434 0.979813 63.3617 0.990324C 63.3273 0.995334 63.2467 1.0054 63.1426 0.996331C 63.061 0.989209 62.8091 0.958809 62.5752 0.752659C 62.2771 0.489981 62.2128 0.133778 62.2466 -0.122902C 62.2736 -0.328067 62.358 -0.468556 62.387 -0.514795C 62.4524 -0.619246 62.5207 -0.681296 62.5232 -0.683697C 62.5478 -0.707013 62.5521 -0.707274 62.5061 -0.673385C 62.3331 -0.546023 61.9071 -0.267283 61.1269 0.214804C 59.589 1.16514 56.7938 2.83351 52.2234 5.50257C 43.086 10.8387 26.8794 20.1592 -0.493762 35.7018L 0.493762 37.441Z"/>
<path id="path10_fill" d="M 40.381 18.6667C 40.381 28.976 31.3414 37.3333 20.1905 37.3333C 9.03958 37.3333 0 28.976 0 18.6667C 0 8.35735 9.03958 0 20.1905 0C 31.3414 0 40.381 8.35735 40.381 18.6667Z"/>
<path id="path11_stroke_2x" d="M 38.381 18.6667C 38.381 27.7265 30.3875 35.3333 20.1905 35.3333L 20.1905 39.3333C 32.2953 39.3333 42.381 30.2254 42.381 18.6667L 38.381 18.6667ZM 20.1905 35.3333C 9.99348 35.3333 2 27.7265 2 18.6667L -2 18.6667C -2 30.2254 8.08569 39.3333 20.1905 39.3333L 20.1905 35.3333ZM 2 18.6667C 2 9.6068 9.99348 2 20.1905 2L 20.1905 -2C 8.08569 -2 -2 7.1079 -2 18.6667L 2 18.6667ZM 20.1905 2C 30.3875 2 38.381 9.6068 38.381 18.6667L 42.381 18.6667C 42.381 7.1079 32.2953 -2 20.1905 -2L 20.1905 2Z"/>
<path id="path12_fill" d="M 3.04762 1.52381C 3.04762 2.36539 2.36539 3.04762 1.52381 3.04762C 0.682233 3.04762 0 2.36539 0 1.52381C 0 0.682233 0.682233 0 1.52381 0C 2.36539 0 3.04762 0.682233 3.04762 1.52381Z"/>
</defs>
</svg>
