<svg width="87" height="87" viewBox="0 0 87 87" version="1.1" xmlns="http://www.w3.org/2000/svg" xmlns:xlink="http://www.w3.org/1999/xlink">
<title>page logo</title>
<desc>Created using Figma</desc>
<g id="Canvas" transform="translate(-806 716)">
<g id="page logo">
<g id="Canvas">
<g id="Triangle Geo (W)">
<g id="Vector">
<g id="Vector">
<use xlink:href="#path0_fill" transform="translate(807.655 -716)" fill="#D1B180"/>
</g>
</g>
<g id="Vector">
<g id="Vector">
<use xlink:href="#path1_fill" transform="translate(819.382 -701.551)" fill="#ACBEBE"/>
</g>
</g>
<g id="Vector">
<g id="Vector">
<use xlink:href="#path0_fill" transform="matrix(1 0 0 -1 847.66 -640.138)" fill="#D1B180"/>
</g>
</g>
<g id="Vector 2.1">
<g id="Vector">
<use xlink:href="#path2_fill" transform="translate(847.985 -701.512)" fill="#ACBEBE"/>
</g>
</g>
<g id="Vector">
<g id="Vector">
<use xlink:href="#path3_fill" transform="translate(821.267 -650.25)" fill="#ACBEBE"/>
</g>
</g>
</g>
</g>
<g id="STEVEN CHRISTENSON">
<use xlink:href="#path4_fill" transform="translate(806 -642.667)" fill="#080706"/>
</g>
</g>
</g>
<defs>
<path id="path0_fill" d="M 30.236 22.0343L 29.0391 21.316L 30.236 22.0343ZM 6.92579 64.6663L 8.1228 65.3846L 6.92579 64.6663ZM 40.6942 8.95282e-09L 29.0391 21.316L 31.433 22.7526L 43.0881 1.43661L 40.6942 8.95282e-09ZM 29.0391 21.316L 5.72879 63.948L 8.1228 65.3846L 31.433 22.7526L 29.0391 21.316ZM 5.72879 63.948L -2.02596e-08 74.4254L 2.39399 75.8619L 8.1228 65.3846L 5.72879 63.948Z"/>
<path id="path1_fill" d="M 21.8676 15.8282L 20.6719 15.1075L 21.8676 15.8282ZM 5.27381 46.0431L 6.4695 46.7637L 5.27381 46.0431ZM 28.9687 -3.79833e-09L 20.6719 15.1075L 23.0632 16.5489L 31.3601 1.44138L 28.9687 -3.79833e-09ZM 20.6719 15.1075L 4.07813 45.3224L 6.4695 46.7637L 23.0632 16.5489L 20.6719 15.1075ZM 4.07813 45.3224L 2.33906e-08 52.7481L 2.39138 54.1894L 6.4695 46.7637L 4.07813 45.3224Z"/>
<path id="path2_fill" d="M 10.99 19.8297L 12.2065 19.1483L 10.99 19.8297ZM 14.6782 27.0555L 13.4618 27.7369L 14.6782 27.0555ZM 18.5507 34.6425L 19.7672 33.9611L 18.5507 34.6425ZM 12.2065 19.1483L 2.43295 8.48147e-09L 3.57832e-09 1.3629L 9.77363 20.5112L 12.2065 19.1483ZM 15.8947 26.374L 12.2065 19.1483L 9.77363 20.5112L 13.4618 27.7369L 15.8947 26.374ZM 28.9876 52.0255L 19.7672 33.9611L 17.3343 35.324L 26.5547 53.3884L 28.9876 52.0255ZM 19.7672 33.9611L 15.8947 26.374L 13.4618 27.7369L 17.3343 35.324L 19.7672 33.9611Z"/>
<path id="path3_fill" d="M 0 2.8903L 38.5542 2.8903L 38.5542 0L 0 0L 0 2.8903ZM 38.5542 2.8903L 55.1785 2.8903L 55.1785 0L 38.5542 0L 38.5542 2.8903Z"/>
<path id="path4_fill" d="M 4.22461 10.7559C 4.22461 11.459 4.0293 12.0293 3.63867 12.4668C 3.24805 12.9004 2.75195 13.1172 2.15039 13.1172C 1.4668 13.1172 0.917969 13.0176 0.503906 12.8184L 0.503906 12.1973C 0.707031 12.3105 0.958984 12.4004 1.25977 12.4668C 1.56055 12.5332 1.85742 12.5664 2.15039 12.5664C 2.58789 12.5664 2.94727 12.4004 3.22852 12.0684C 3.50977 11.7363 3.65039 11.3145 3.65039 10.8027C 3.65039 10.3301 3.55078 9.95508 3.35156 9.67773C 3.15234 9.40039 2.77148 9.12305 2.20898 8.8457C 1.76758 8.62305 1.4375 8.4082 1.21875 8.20117C 1 7.99023 0.837891 7.74609 0.732422 7.46875C 0.626953 7.19141 0.574219 6.85938 0.574219 6.47266C 0.574219 6.05078 0.660156 5.67578 0.832031 5.34766C 1.00391 5.01953 1.24414 4.76562 1.55273 4.58594C 1.86133 4.40234 2.19922 4.31055 2.56641 4.31055C 2.89844 4.31055 3.19922 4.34766 3.46875 4.42188C 3.74219 4.49609 3.95703 4.57617 4.11328 4.66211L 3.89062 5.21289C 3.45703 4.99023 3.01562 4.87891 2.56641 4.87891C 2.14453 4.87891 1.80078 5.02344 1.53516 5.3125C 1.27344 5.59766 1.14258 5.97656 1.14258 6.44922C 1.14258 6.92969 1.23828 7.30273 1.42969 7.56836C 1.62109 7.83398 1.99609 8.10938 2.55469 8.39453C 3.13281 8.67578 3.55469 9.00586 3.82031 9.38477C 4.08984 9.75977 4.22461 10.2168 4.22461 10.7559ZM 7.10742 13L 6.5332 13L 6.5332 4.98438L 4.82812 4.98438L 4.82812 4.43359L 8.8125 4.43359L 8.8125 4.98438L 7.10742 4.98438L 7.10742 13ZM 12.9609 13L 9.85547 13L 9.85547 4.43359L 12.9609 4.43359L 12.9609 4.98438L 10.4297 4.98438L 10.4297 8.23633L 12.8203 8.23633L 12.8203 8.78711L 10.4297 8.78711L 10.4297 12.4492L 12.9609 12.4492L 12.9609 13ZM 17.625 4.43359L 18.2168 4.43359L 16.1895 13L 15.5508 13L 13.5352 4.43359L 14.1328 4.43359L 15.5273 10.457C 15.6367 10.918 15.709 11.2578 15.7441 11.4766C 15.7793 11.6914 15.8145 11.9629 15.8496 12.291C 15.8809 12.0645 15.9141 11.8418 15.9492 11.623C 15.9844 11.4043 16.0176 11.2207 16.0488 11.0723C 16.084 10.9199 16.6094 8.70703 17.625 4.43359ZM 22.2656 13L 19.1602 13L 19.1602 4.43359L 22.2656 4.43359L 22.2656 4.98438L 19.7344 4.98438L 19.7344 8.23633L 22.125 8.23633L 22.125 8.78711L 19.7344 8.78711L 19.7344 12.4492L 22.2656 12.4492L 22.2656 13ZM 28.2891 13L 27.5566 13L 24.3164 5.31836L 24.2695 5.31836C 24.3164 5.84961 24.3398 6.36133 24.3398 6.85352L 24.3398 13L 23.7773 13L 23.7773 4.43359L 24.5215 4.43359L 27.7383 12.0273L 27.7734 12.0273C 27.7422 11.3867 27.7266 10.8516 27.7266 10.4219L 27.7266 4.43359L 28.2891 4.43359L 28.2891 13ZM 34.8457 4.84961C 34.2012 4.84961 33.6875 5.19141 33.3047 5.875C 32.9258 6.55469 32.7363 7.49805 32.7363 8.70508C 32.7363 9.49023 32.8242 10.1738 33 10.7559C 33.1758 11.3379 33.4277 11.7852 33.7559 12.0977C 34.084 12.4102 34.4648 12.5664 34.8984 12.5664C 35.3438 12.5664 35.7266 12.4863 36.0469 12.3262L 36.0469 12.8535C 35.7422 13.0293 35.3418 13.1172 34.8457 13.1172C 34.3027 13.1172 33.8262 12.9414 33.416 12.5898C 33.0098 12.2383 32.6953 11.7305 32.4727 11.0664C 32.25 10.3984 32.1387 9.60742 32.1387 8.69336C 32.1387 7.32617 32.3809 6.25195 32.8652 5.4707C 33.3535 4.68945 34.0176 4.29883 34.8574 4.29883C 35.3809 4.29883 35.8379 4.41992 36.2285 4.66211L 35.9648 5.16602C 35.6367 4.95508 35.2637 4.84961 34.8457 4.84961ZM 41.6016 13L 41.0273 13L 41.0273 8.78711L 38.0391 8.78711L 38.0391 13L 37.4648 13L 37.4648 4.43359L 38.0391 4.43359L 38.0391 8.23633L 41.0273 8.23633L 41.0273 4.43359L 41.6016 4.43359L 41.6016 13ZM 44.0508 9.25586L 44.0508 13L 43.4766 13L 43.4766 4.43359L 44.6484 4.43359C 45.4844 4.43359 46.0957 4.63086 46.4824 5.02539C 46.8691 5.41992 47.0625 6.00977 47.0625 6.79492C 47.0625 7.38867 46.957 7.87695 46.7461 8.25977C 46.5352 8.64258 46.1816 8.92969 45.6855 9.12109L 47.3848 13L 46.7402 13L 45.1406 9.25586L 44.0508 9.25586ZM 44.0508 8.72852L 44.8535 8.72852C 45.373 8.72852 45.7734 8.56836 46.0547 8.24805C 46.3359 7.92773 46.4766 7.45117 46.4766 6.81836C 46.4766 6.17383 46.332 5.70898 46.043 5.42383C 45.7578 5.13867 45.3066 4.99609 44.6895 4.99609L 44.0508 4.99609L 44.0508 8.72852ZM 48.5742 13L 48.5742 4.43359L 49.1484 4.43359L 49.1484 13L 48.5742 13ZM 54.3105 10.7559C 54.3105 11.459 54.1152 12.0293 53.7246 12.4668C 53.334 12.9004 52.8379 13.1172 52.2363 13.1172C 51.5527 13.1172 51.0039 13.0176 50.5898 12.8184L 50.5898 12.1973C 50.793 12.3105 51.0449 12.4004 51.3457 12.4668C 51.6465 12.5332 51.9434 12.5664 52.2363 12.5664C 52.6738 12.5664 53.0332 12.4004 53.3145 12.0684C 53.5957 11.7363 53.7363 11.3145 53.7363 10.8027C 53.7363 10.3301 53.6367 9.95508 53.4375 9.67773C 53.2383 9.40039 52.8574 9.12305 52.2949 8.8457C 51.8535 8.62305 51.5234 8.4082 51.3047 8.20117C 51.0859 7.99023 50.9238 7.74609 50.8184 7.46875C 50.7129 7.19141 50.6602 6.85938 50.6602 6.47266C 50.6602 6.05078 50.7461 5.67578 50.918 5.34766C 51.0898 5.01953 51.3301 4.76562 51.6387 4.58594C 51.9473 4.40234 52.2852 4.31055 52.6523 4.31055C 52.9844 4.31055 53.2852 4.34766 53.5547 4.42188C 53.8281 4.49609 54.043 4.57617 54.1992 4.66211L 53.9766 5.21289C 53.543 4.99023 53.1016 4.87891 52.6523 4.87891C 52.2305 4.87891 51.8867 5.02344 51.6211 5.3125C 51.3594 5.59766 51.2285 5.97656 51.2285 6.44922C 51.2285 6.92969 51.3242 7.30273 51.5156 7.56836C 51.707 7.83398 52.082 8.10938 52.6406 8.39453C 53.2188 8.67578 53.6406 9.00586 53.9062 9.38477C 54.1758 9.75977 54.3105 10.2168 54.3105 10.7559ZM 57.1934 13L 56.6191 13L 56.6191 4.98438L 54.9141 4.98438L 54.9141 4.43359L 58.8984 4.43359L 58.8984 4.98438L 57.1934 4.98438L 57.1934 13ZM 63.0469 13L 59.9414 13L 59.9414 4.43359L 63.0469 4.43359L 63.0469 4.98438L 60.5156 4.98438L 60.5156 8.23633L 62.9062 8.23633L 62.9062 8.78711L 60.5156 8.78711L 60.5156 12.4492L 63.0469 12.4492L 63.0469 13ZM 69.0703 13L 68.3379 13L 65.0977 5.31836L 65.0508 5.31836C 65.0977 5.84961 65.1211 6.36133 65.1211 6.85352L 65.1211 13L 64.5586 13L 64.5586 4.43359L 65.3027 4.43359L 68.5195 12.0273L 68.5547 12.0273C 68.5234 11.3867 68.5078 10.8516 68.5078 10.4219L 68.5078 4.43359L 69.0703 4.43359L 69.0703 13ZM 74.2324 10.7559C 74.2324 11.459 74.0371 12.0293 73.6465 12.4668C 73.2559 12.9004 72.7598 13.1172 72.1582 13.1172C 71.4746 13.1172 70.9258 13.0176 70.5117 12.8184L 70.5117 12.1973C 70.7148 12.3105 70.9668 12.4004 71.2676 12.4668C 71.5684 12.5332 71.8652 12.5664 72.1582 12.5664C 72.5957 12.5664 72.9551 12.4004 73.2363 12.0684C 73.5176 11.7363 73.6582 11.3145 73.6582 10.8027C 73.6582 10.3301 73.5586 9.95508 73.3594 9.67773C 73.1602 9.40039 72.7793 9.12305 72.2168 8.8457C 71.7754 8.62305 71.4453 8.4082 71.2266 8.20117C 71.0078 7.99023 70.8457 7.74609 70.7402 7.46875C 70.6348 7.19141 70.582 6.85938 70.582 6.47266C 70.582 6.05078 70.668 5.67578 70.8398 5.34766C 71.0117 5.01953 71.252 4.76562 71.5605 4.58594C 71.8691 4.40234 72.207 4.31055 72.5742 4.31055C 72.9062 4.31055 73.207 4.34766 73.4766 4.42188C 73.75 4.49609 73.9648 4.57617 74.1211 4.66211L 73.8984 5.21289C 73.4648 4.99023 73.0234 4.87891 72.5742 4.87891C 72.1523 4.87891 71.8086 5.02344 71.543 5.3125C 71.2812 5.59766 71.1504 5.97656 71.1504 6.44922C 71.1504 6.92969 71.2461 7.30273 71.4375 7.56836C 71.6289 7.83398 72.0039 8.10938 72.5625 8.39453C 73.1406 8.67578 73.5625 9.00586 73.8281 9.38477C 74.0977 9.75977 74.2324 10.2168 74.2324 10.7559ZM 80.3438 8.70508C 80.3438 10.123 80.1309 11.2129 79.7051 11.9746C 79.2832 12.7363 78.6719 13.1172 77.8711 13.1172C 77.0625 13.1172 76.4492 12.7344 76.0312 11.9688C 75.6133 11.1992 75.4043 10.1074 75.4043 8.69336C 75.4043 7.2168 75.6113 6.11719 76.0254 5.39453C 76.4395 4.67188 77.0605 4.31055 77.8887 4.31055C 78.6855 4.31055 79.293 4.69141 79.7109 5.45312C 80.1328 6.21094 80.3438 7.29492 80.3438 8.70508ZM 76.002 8.70508C 76.002 9.97852 76.1602 10.9414 76.4766 11.5938C 76.7969 12.2422 77.2617 12.5664 77.8711 12.5664C 78.4844 12.5664 78.9492 12.2441 79.2656 11.5996C 79.5859 10.9551 79.7461 9.99023 79.7461 8.70508C 79.7461 7.43555 79.5898 6.47852 79.2773 5.83398C 78.9648 5.18555 78.502 4.86133 77.8887 4.86133C 77.2598 4.86133 76.7871 5.18945 76.4707 5.8457C 76.1582 6.49805 76.002 7.45117 76.002 8.70508ZM 86.4492 13L 85.7168 13L 82.4766 5.31836L 82.4297 5.31836C 82.4766 5.84961 82.5 6.36133 82.5 6.85352L 82.5 13L 81.9375 13L 81.9375 4.43359L 82.6816 4.43359L 85.8984 12.0273L 85.9336 12.0273C 85.9023 11.3867 85.8867 10.8516 85.8867 10.4219L 85.8867 4.43359L 86.4492 4.43359L 86.4492 13Z"/>
</defs>
</svg>
